<?xml version="1.0" encoding="UTF-8"?>
<svg width="8px" height="18px" viewBox="0 0 8 18" version="1.1" xmlns="http://www.w3.org/2000/svg" xmlns:xlink="http://www.w3.org/1999/xlink">
    <!-- Generator: Sketch 51.3 (57544) - http://www.bohemiancoding.com/sketch -->
    <title>Shape Copy 4</title>
    <desc>Created with Sketch.</desc>
    <defs></defs>
    <g id="Page-1" stroke="none" stroke-width="1" fill="none" fill-rule="evenodd">
        <g id="Desktop-HD" transform="translate(-1292.000000, -30.000000)" fill="#000000">
            <path d="M1293.78085,39.5444444 L1293.78283,48 L1297.31027,48 C1297.33136,45.7746375 1297.31092,43.4903703 1297.31092,41.2540488 C1297.31092,41.2218568 1297.30433,39.0882759 1297.31356,39.04307 C1297.33333,39.0060834 1299.57291,39.0245767 1299.65068,39.0047135 L1299.69023,38.9930696 L1300,35.9074253 L1297.32279,35.9067404 C1297.31224,35.4512568 1297.32477,34.9827595 1297.32542,34.5252211 C1297.32542,34.108094 1297.32923,33.6176787 1297.55479,33.3635668 C1297.78034,33.1094549 1299.98616,33.1094549 1299.98616,33.1094549 L1299.9822,30.0135366 C1299.5215,29.9847692 1298.97644,30.0107969 1298.50651,30.0107969 C1298.01812,30.0107969 1297.52315,30.0005228 1297.04333,30.0333998 C1296.63086,30.0617712 1296.21397,30.1493774 1295.84483,30.2746566 C1295.39409,30.4276283 1294.015,31.1034502 1293.84025,33.6113925 C1293.79832,34.213035 1293.77356,34.9642458 1293.77229,35.9067404 L1292,35.9074253 L1292.0033,39.0074532 L1293.76174,39.0115629 C1293.8059,39.0690976 1293.78085,39.4697862 1293.78085,39.5444444 Z" id="Shape-Copy-4"></path>
        </g>
    </g>
</svg>