<?xml version="1.0" encoding="UTF-8"?>
<svg width="16px" height="16px" viewBox="0 0 16 16" version="1.1" xmlns="http://www.w3.org/2000/svg" xmlns:xlink="http://www.w3.org/1999/xlink">
    <!-- Generator: Sketch 51.3 (57544) - http://www.bohemiancoding.com/sketch -->
    <title>Shape</title>
    <desc>Created with Sketch.</desc>
    <defs></defs>
    <g id="Page-1" stroke="none" stroke-width="1" fill="none" fill-rule="evenodd">
        <g id="Desktop-HD" transform="translate(-1251.000000, -31.000000)" fill="#000000" fill-rule="nonzero">
            <path d="M1259.00075,31 C1256.82806,31 1256.55539,31.0095 1255.70205,31.0483333 C1254.85037,31.0873333 1254.26903,31.2221667 1253.76036,31.42 C1253.23419,31.6243333 1252.78785,31.8976667 1252.34318,32.3425 C1251.89818,32.7871667 1251.62484,33.2335 1251.41984,33.7595 C1251.2215,34.2683333 1251.0865,34.8498333 1251.04817,35.7011667 C1251.01,36.5545 1251,36.8273333 1251,39 C1251,41.1726667 1251.00967,41.4445 1251.04833,42.2978333 C1251.0875,43.1495 1251.22234,43.7308333 1251.42,44.2395 C1251.62451,44.7656667 1251.89784,45.212 1252.34268,45.6566667 C1252.78719,46.1016667 1253.23352,46.3756667 1253.75936,46.58 C1254.26837,46.7778333 1254.84987,46.9126667 1255.70138,46.9516667 C1256.55472,46.9905 1256.82723,47 1258.99975,47 C1261.17261,47 1261.44444,46.9905 1262.29778,46.9516667 C1263.14946,46.9126667 1263.73147,46.7778333 1264.24047,46.58 C1264.76648,46.3756667 1265.21215,46.1016667 1265.65665,45.6566667 C1266.10166,45.212 1266.37499,44.7656667 1266.58,44.2396667 C1266.77666,43.7308333 1266.91167,43.1493333 1266.95167,42.298 C1266.99,41.4446667 1267,41.1726667 1267,39 C1267,36.8273333 1266.99,36.5546667 1266.95167,35.7013333 C1266.91167,34.8496667 1266.77666,34.2683333 1266.58,33.7596667 C1266.37499,33.2335 1266.10166,32.7871667 1265.65665,32.3425 C1265.21165,31.8975 1264.76664,31.6241667 1264.23997,31.42 C1263.72997,31.2221667 1263.14829,31.0873333 1262.29662,31.0483333 C1261.44328,31.0095 1261.17161,31 1258.99825,31 L1259.00075,31 Z M1258.28308,32.4416667 C1258.49608,32.4413333 1258.73375,32.4416667 1259.00075,32.4416667 C1261.13677,32.4416667 1261.38994,32.4493333 1262.23345,32.4876667 C1263.01346,32.5233333 1263.4368,32.6536667 1263.7188,32.7631667 C1264.09214,32.9081667 1264.35831,33.0815 1264.63814,33.3615 C1264.91814,33.6415 1265.09148,33.9081667 1265.23681,34.2815 C1265.34632,34.5631667 1265.47682,34.9865 1265.51232,35.7665 C1265.55065,36.6098333 1265.55898,36.8631667 1265.55898,38.9981667 C1265.55898,41.1331667 1265.55065,41.3865 1265.51232,42.2298333 C1265.47665,43.0098333 1265.34632,43.4331667 1265.23681,43.7148333 C1265.09181,44.0881667 1264.91814,44.354 1264.63814,44.6338333 C1264.35814,44.9138333 1264.0923,45.0871667 1263.7188,45.2321667 C1263.43713,45.3421667 1263.01346,45.4721667 1262.23345,45.5078333 C1261.39011,45.5461667 1261.13677,45.5545 1259.00075,45.5545 C1256.86456,45.5545 1256.61139,45.5461667 1255.76805,45.5078333 C1254.98804,45.4718333 1254.5647,45.3415 1254.28253,45.232 C1253.9092,45.087 1253.64253,44.9136667 1253.36252,44.6336667 C1253.08252,44.3536667 1252.90919,44.0876667 1252.76385,43.7141667 C1252.65435,43.4325 1252.52385,43.0091667 1252.48835,42.2291667 C1252.45002,41.3858333 1252.44235,41.1325 1252.44235,38.9961667 C1252.44235,36.8598333 1252.45002,36.6078333 1252.48835,35.7645 C1252.52402,34.9845 1252.65435,34.5611667 1252.76385,34.2791667 C1252.90885,33.9058333 1253.08252,33.6391667 1253.36252,33.3591667 C1253.64253,33.0791667 1253.9092,32.9058333 1254.28253,32.7605 C1254.56454,32.6505 1254.98804,32.5205 1255.76805,32.4846667 C1256.50606,32.4513333 1256.79206,32.4413333 1258.28308,32.4396667 L1258.28308,32.4416667 Z M1263.27113,33.77 C1262.74112,33.77 1262.31112,34.1995 1262.31112,34.7296667 C1262.31112,35.2596667 1262.74112,35.6896667 1263.27113,35.6896667 C1263.80113,35.6896667 1264.23114,35.2596667 1264.23114,34.7296667 C1264.23114,34.1996667 1263.80113,33.7696667 1263.27113,33.7696667 L1263.27113,33.77 Z M1259.00075,34.8916667 C1256.73189,34.8916667 1254.89237,36.7311667 1254.89237,39 C1254.89237,41.2688333 1256.73189,43.1075 1259.00075,43.1075 C1261.26961,43.1075 1263.10846,41.2688333 1263.10846,39 C1263.10846,36.7311667 1261.26944,34.8916667 1259.00058,34.8916667 L1259.00075,34.8916667 Z M1259.00075,36.3333333 C1260.47343,36.3333333 1261.66744,37.5271667 1261.66744,39 C1261.66744,40.4726667 1260.47343,41.6666667 1259.00075,41.6666667 C1257.5279,41.6666667 1256.33406,40.4726667 1256.33406,39 C1256.33406,37.5271667 1257.5279,36.3333333 1259.00075,36.3333333 Z" id="Shape"></path>
        </g>
    </g>
</svg>