<?xml version="1.0" encoding="UTF-8"?>
<svg width="234px" height="75px" viewBox="0 0 234 75" version="1.1" xmlns="http://www.w3.org/2000/svg" xmlns:xlink="http://www.w3.org/1999/xlink">
    <!-- Generator: Sketch 51.3 (57544) - http://www.bohemiancoding.com/sketch -->
    <title>Layer 1</title>
    <desc>Created with Sketch.</desc>
    <defs></defs>
    <g id="Page-1" stroke="none" stroke-width="1" fill="none" fill-rule="evenodd">
        <g id="Desktop-HD" transform="translate(-95.000000, -15.000000)" fill="#000000" fill-rule="nonzero">
            <g id="Layer-1" transform="translate(95.000000, 15.000000)">
                <path d="M190.749214,28.0482204 C190.956822,28.6289162 191.03566,29.0657459 190.641468,29.4633394 C190.601689,29.5244443 190.586664,29.5982879 190.599421,29.6699835 C190.841192,29.7824606 190.770237,29.9550999 190.654608,30.07804 C190.391813,30.3762351 190.473279,30.9333892 189.958201,31.0589451 C189.902524,31.0832983 189.850376,31.1149692 189.803152,31.1531119 C190.223624,31.6004047 189.966085,31.990151 189.637591,32.3197351 C189.448379,32.5080688 189.290702,32.620546 189.458891,32.9108939 C189.51145,33.002445 189.424727,33.1724686 189.380052,33.3163346 C189.090978,34.1507579 188.801903,34.9851812 188.499689,35.8143729 C188.44713,35.9660863 188.310477,36.0759476 188.257918,36.2355082 C188.224714,36.3878256 188.26562,36.5468092 188.368292,36.6644907 C188.631087,36.3453696 188.872858,36.0236327 189.133025,35.7071273 C190.118506,34.5064995 191.090847,33.2927929 192.107863,32.1183226 C192.294448,31.9012156 192.670245,31.8567479 193.011878,31.6867243 C193.324604,32.6336247 193.684633,33.4497377 194.659602,33.7505486 L194.759464,33.6066825 C194.79265,33.6358628 194.82181,33.6692857 194.846186,33.7060809 C195.216727,34.3914066 195.082702,35.1133528 194.959188,35.8143729 C194.767348,36.9234496 194.512437,38.0194476 194.278549,39.120677 C194.204967,39.4764186 194.157664,39.8635491 193.458629,39.8112342 L193.939544,40.0963506 L193.461257,42.4976063 C193.779239,42.6702456 193.921148,42.5237637 194.036778,42.3223512 C194.490517,41.5341175 195.046259,40.8085877 195.689758,40.16436 C196.102346,39.7458405 196.4177,39.2305384 196.825032,38.8041716 C197.581881,38.0194476 198.199449,37.1143991 198.927391,36.3061334 C199.324212,35.8693036 199.781475,35.4847888 200.199319,35.0636536 C200.769584,34.4881893 201.300429,33.8734887 201.896974,33.3267976 C203.055899,32.2804989 204.209569,31.1949639 205.439449,30.2166746 C206.377527,29.4425688 207.410718,28.7903736 208.51415,28.2757903 C209.087043,28.0142157 209.565329,27.55646 210.159246,27.3550474 C210.813605,27.132709 211.391754,26.7324997 212.069765,26.5964808 C212.506004,26.5075454 212.96064,26.5101612 213.383739,26.4133786 C213.736674,26.3487178 214.074428,26.219211 214.379732,26.0314795 C214.747645,25.7699048 215.02358,25.4010845 215.386237,25.1395098 C215.858931,24.8080049 216.352218,24.5065923 216.863144,24.2370771 C217.379691,23.9274212 217.923252,23.6647819 218.487216,23.4523531 C219.601467,23.0887642 220.718345,22.7356384 221.90355,23.2823295 C222.54477,23.5752932 222.883775,24.1089055 223.23592,24.6294392 C223.371599,24.8794672 223.581863,25.0814431 223.837721,25.2075192 C224.999274,25.6888167 225.330396,27.0620838 225.304116,27.9645165 C225.284688,28.8503236 225.100235,29.7248456 224.760131,30.5436429 C224.589314,30.9490837 224.605082,31.4303811 224.531499,31.8776738 C224.292356,33.3058716 223.777278,34.6529813 223.306875,36.0131697 C223.141314,36.4892356 223.012545,36.9783803 222.846984,37.4544462 C222.755006,37.7160209 222.610469,37.9775956 222.507979,38.2391703 C222.300371,38.7806299 222.111158,39.3299368 221.906178,39.8713964 C221.430519,41.1295706 220.949605,42.3825134 220.473946,43.6380719 C220.132313,44.5352731 219.819587,45.4429373 219.451674,46.3270597 C219.104785,47.1667145 218.702708,47.9828275 218.324284,48.8094036 C218.061489,49.3979466 217.798694,49.9917212 217.520131,50.5776485 C216.865772,51.9639943 216.206157,53.3451087 215.507122,54.7968482 C215.5991,54.9040939 215.593845,55.2859929 215.995921,55.0218025 C216.308647,55.2833772 216.666048,55.1238166 217.005053,55.1185851 C217.409757,55.1185851 217.817089,55.0767331 218.221794,55.1028906 C218.878781,55.1447426 219.535768,55.2964559 220.192755,55.2676827 C220.904358,55.231314 221.617709,55.2488026 222.32665,55.3199976 C222.747122,55.3644653 223.209641,55.191826 223.601205,55.4795582 C223.637997,55.5057156 223.714207,55.5292574 223.735231,55.5135629 C224.260821,55.0715017 224.865249,55.3147661 225.396095,55.3618496 C226.610207,55.4717109 227.795412,55.2415252 228.999013,55.2415252 C230.023913,55.2415252 231.051441,55.2075205 232.078969,55.1839788 C232.357532,55.1839788 232.636094,55.1447426 232.94882,55.1212008 C233.061575,55.6279598 233.48253,56.0092502 234,56.0733327 C233.550621,56.4918522 232.998751,56.5153939 232.494185,56.5677089 C231.201234,56.7063435 229.900399,56.7481954 228.604821,56.8711355 C226.883514,57.0359276 225.164835,57.2478031 223.440901,57.4256739 C221.480451,57.6270864 219.52,57.8258831 217.55955,58.0037539 C216.36909,58.1136153 215.173373,58.1842405 213.980284,58.2653286 C213.589707,58.2948384 213.237427,58.5100954 213.034222,58.8434087 C212.195906,60.049268 211.391754,61.2865163 210.458832,62.416519 C209.371762,63.7360953 208.215614,64.9977612 206.995195,66.1962732 C205.956222,67.2549745 204.801501,68.1946416 203.552582,68.9977382 C201.279406,70.3971628 198.990462,71.7495039 196.399304,72.523765 C194.356964,73.172058 192.25325,73.6103054 190.121134,73.8316385 C188.802896,73.9653098 187.477741,74.0194675 186.152931,73.9938148 C184.502579,73.9336526 182.852227,73.7714763 181.212386,73.5543693 C179.941726,73.425672 178.692391,73.1382971 177.493839,72.6990201 C176.673918,72.3720517 175.759392,72.2621903 174.965751,71.8907543 C174.219414,71.5428599 173.388982,71.283901 172.816089,70.6351957 C172.645272,70.4416305 172.403501,70.2899172 172.290499,70.0701944 C171.96989,69.4057947 171.389113,68.9088028 171.178877,68.1659307 C170.950245,67.3812066 170.879291,66.6278715 171.34181,65.8954624 C171.404701,65.7662305 171.452322,65.6301747 171.483719,65.4900216 C171.57323,65.0709893 171.813401,64.6989178 172.159102,64.4437228 C172.505991,64.2056898 172.731995,63.7976333 173.05786,63.5203642 C173.436285,63.1933958 173.864641,62.9265896 174.271973,62.6310102 C174.438581,62.5391239 174.591583,62.424685 174.726608,62.2909631 C174.963732,61.9691645 175.396582,61.859536 175.759392,62.0293884 C176.284982,61.2917478 177.102274,60.9830897 177.877519,60.6221166 C178.652764,60.2611435 179.372822,59.9655641 180.140183,59.6935264 C180.770891,59.4711879 181.433134,59.3377849 182.076982,59.1442196 C183.567029,58.6995426 185.043936,58.2051664 186.544495,57.7971099 C187.677141,57.4910675 188.846579,57.3184282 189.981853,57.0123859 C190.501635,56.8641278 191.042088,56.8005286 191.582274,56.8240521 C191.673922,56.8356983 191.766793,56.8153616 191.845069,56.7665056 C192.241889,56.4029168 192.730687,56.4761577 193.208974,56.4186113 C193.516444,56.3793751 193.863333,56.5415514 194.152408,56.2538193 C194.260154,56.1465736 194.465134,56.1753468 194.564996,56.3872223 C194.609671,56.4761577 194.743696,56.5258569 194.904001,56.648797 C194.948676,56.4761577 194.977584,56.3610649 195.024887,56.1648839 C195.600408,56.2381248 196.144393,55.9033092 196.793497,55.9503926 C197.290179,55.9922446 197.805257,55.7411329 198.320335,55.6652762 C199.424074,55.5030999 200.564604,55.605114 201.647319,55.2519882 C201.691994,55.2389095 201.755065,55.2101362 201.7866,55.2284465 C202.41468,55.5920353 203.026992,55.2284465 203.626164,55.1709 C204.414549,55.0950434 205.16877,54.9773348 205.93876,55.191826 C206.006323,55.2147782 206.080687,55.2061267 206.141112,55.1682843 C206.474861,54.8046955 206.900589,54.9721033 207.289525,54.9616403 C208.246099,54.9328671 209.202672,54.9119411 210.159246,54.8910151 C210.422041,54.8910151 210.684836,54.8910151 211.058004,54.8910151 C211.40535,54.5903251 211.685551,54.2205369 211.880552,53.8054802 C212.61375,52.3301989 213.428414,50.8941538 214.169496,49.4214883 C214.576828,48.607991 214.905322,47.7526418 215.262723,46.9156028 C215.71473,45.869304 216.171993,44.804695 216.602977,43.7400861 C217.018193,42.7199448 217.391362,41.6867247 217.798694,40.6613519 C218.148211,39.7693823 218.50824,38.8800283 218.849873,37.9854429 C219.14602,37.2700015 219.376469,36.5293363 219.538396,35.772521 C218.983899,36.3793743 218.439913,36.9993063 217.869648,37.6035438 C216.57407,38.9532692 215.283747,40.3056104 213.956632,41.6265626 C213.005315,42.5708472 212.030346,43.4968216 211.010701,44.3652496 C209.83338,45.3696964 208.558825,46.2381244 206.953148,46.4133794 C206.618387,46.444766 206.281404,46.444766 205.946643,46.4133794 C205.32883,46.3906789 204.777145,46.0218951 204.522295,45.4612475 C204.149126,44.6765234 203.64456,43.9598088 203.694491,43.0416816 C203.781213,41.5323957 203.936262,40.0414199 204.609017,38.6524583 C205.134607,37.5643076 205.644429,36.4656939 206.185787,35.3801589 C206.705688,34.4097839 207.350602,33.5110967 208.10419,32.7068656 C208.47327,32.2280338 208.810373,31.725602 209.113322,31.2028111 C208.774317,31.1086442 208.587732,31.3623717 208.37224,31.5114693 C206.046187,33.2117147 203.912098,35.1578567 202.007348,37.3158117 C201.689366,37.6689375 201.429199,38.1005357 200.935144,38.3438002 C200.609279,38.5033608 200.472625,39.0186629 200.22297,39.3534785 C199.255885,40.6325787 198.273032,41.901216 197.308575,43.1803162 C196.910174,43.6915047 196.539118,44.2232389 196.196952,44.7733061 C195.984088,45.1316634 195.589896,45.2964555 195.408568,45.6914332 C195.204883,46.0716364 194.958942,46.4278668 194.67537,46.7534265 C194.153093,47.4596605 193.364804,47.9242061 192.491544,48.040374 C192.036629,48.0669057 191.580303,48.0245718 191.13815,47.9148181 C190.972428,47.878933 190.82458,47.7863783 190.720306,47.6532434 C190.092226,46.8240517 189.579776,45.9294662 189.650731,44.8517785 C189.732197,43.606683 189.83206,42.3589717 190.0239,41.1269549 C190.2026,39.9969522 190.515326,38.8852598 190.767609,37.7683359 C190.786005,37.6767847 190.786005,37.5826178 190.812285,37.3053487 C190.234136,38.0325263 189.734825,38.6132221 189.29333,39.2253069 C188.851835,39.8373917 188.410339,40.5331804 188.005635,41.2080431 C187.540488,41.9927671 187.093737,42.7774912 186.675893,43.5936042 C186.234397,44.4489535 185.79553,45.3095342 185.424989,46.1936567 C185.157408,46.8868238 184.928429,47.5941491 184.739094,48.3124116 C184.413228,49.4397986 184.113642,50.5750327 183.798288,51.7128826 C183.556517,52.5760791 183.406724,52.691172 182.510593,52.7461027 C182.439639,52.7461027 182.368684,52.7774916 182.297729,52.7827231 C182.232087,52.7865521 182.166276,52.7865521 182.100633,52.7827231 C181.448902,52.0738557 181.419994,51.2786686 181.664394,50.4285509 C182.061937,48.8963377 182.58128,47.3980223 183.217512,45.9477764 C183.514924,45.2401833 183.768558,44.5151384 183.976989,43.7767065 C184.691791,41.5611689 185.396081,39.3299368 186.108256,37.1222464 C186.757006,35.1678396 187.537528,33.2592394 188.444502,31.4094551 C188.925246,30.4744035 189.461418,29.5686289 190.050179,28.6969256 C190.256792,28.4541199 190.49142,28.2363845 190.749214,28.0482204 Z M178.135058,70.7293626 C178.416249,70.7555201 178.64488,70.7712146 178.870884,70.7947563 C179.446405,70.8549185 180.095508,70.7738303 180.576423,71.0170948 C181.23341,71.3519104 181.921933,71.3205214 182.57892,71.4173041 C183.694887,71.5716182 184.82386,71.6110627 185.947951,71.5350127 C187.490557,71.4460773 189.048931,71.4748505 190.575769,71.1243404 C190.867293,71.0243293 191.174096,70.9756458 191.482412,70.9804743 C192.131515,71.066794 192.651849,70.4913297 193.321976,70.6613532 C193.947428,70.1852873 194.720045,70.1120464 195.442731,69.9001709 C195.605819,69.8553813 195.763543,69.7931109 195.913134,69.7144528 C196.375653,69.4659569 196.82766,69.1913035 197.287551,68.9454232 C197.663348,68.7387792 198.0444,68.5321352 198.425453,68.3307227 C198.800937,68.0922744 199.19981,67.8924497 199.615914,67.7343324 C200.062665,67.6087766 200.159899,67.1484051 200.527812,66.9757658 C200.59136,66.9411102 200.650478,66.898954 200.703885,66.85021 C201.476502,66.2590512 202.280654,65.7123601 203.008596,65.0662706 C203.976706,64.2129246 204.874815,63.2839983 205.69436,62.2883474 C206.21995,61.6579524 206.798099,61.0955668 207.339456,60.4913292 C207.752044,60.0309578 208.140981,59.5522761 208.592988,59.0212795 C208.579848,58.9114181 208.511522,58.7937095 208.235587,58.8434087 C207.646926,58.9532701 207.05301,59.0448212 206.456466,59.1049834 C205.930876,59.1599141 205.405286,59.1363723 204.879696,59.1991503 C203.360741,59.3848683 201.844415,59.5993595 200.32546,59.7981563 C199.30056,59.9315594 198.267776,60.0361893 197.248132,60.1957498 C195.792248,60.4233198 194.357388,60.6822788 192.896248,60.9464692 C191.264292,61.2420486 189.634963,61.558554 188.003007,61.8672121 C187.577279,61.9483003 187.146296,62.003231 186.73108,62.1287868 C185.293591,62.5394591 183.861359,62.9658258 182.429127,63.3974241 C180.18223,64.0749025 178.011544,64.9328675 176.064234,66.2747457 C175.386223,66.7377329 174.794935,67.3053499 174.540024,68.1345417 C174.361323,68.7178533 174.44279,69.0082012 174.997287,69.3587113 C175.575109,69.6765978 176.175948,69.951141 176.794804,70.1800558 C176.923574,70.2349865 177.10753,70.2219077 177.188996,70.3108431 C177.451791,70.5985753 177.714586,70.5724178 178.035196,70.4337832 C178.159397,70.4107891 178.286792,70.4107891 178.410993,70.4337832 L178.135058,70.7293626 Z M215.977525,29.2226907 C214.444251,30.4874045 213.053769,31.9144074 211.830621,33.4785109 C211.305032,34.1795311 210.695347,34.8413151 210.177641,35.555414 C209.659935,36.2695129 209.215812,36.9888433 208.771689,37.7264839 C208.380124,38.3804206 208.033235,39.0631306 207.660066,39.7301461 C207.49687,39.9599757 207.356907,40.2053059 207.242222,40.4625552 C206.979427,41.2995942 206.753424,42.1470962 206.535304,42.9945982 C206.466977,43.2561729 206.332952,43.5595995 206.653562,43.7793223 C207.539181,43.6223774 208.214563,43.0678391 208.900458,42.5734629 C210.464437,41.4085864 211.962878,40.1589887 213.388995,38.8303291 C213.609743,38.6315323 213.846258,38.4510458 214.043355,38.2339388 C214.445431,37.7944933 214.773924,37.2765755 215.223304,36.8972922 C216.327042,35.9608548 217.204777,34.8256206 218.135071,33.7374699 C218.293975,33.5366942 218.354672,33.2758548 218.300632,33.0259867 C218.031097,32.317602 217.723175,31.6242835 217.378222,30.9490837 C217.028705,30.284684 216.75277,29.5705851 215.956501,29.2226907 L215.977525,29.2226907 Z M220.021939,31.3335985 C220.266338,31.0720238 220.39248,30.8863058 220.547529,30.7450554 C221.228167,30.1225077 221.598708,29.2148435 222.426512,28.7230831 C222.5873,28.5855194 222.693525,28.395387 222.726098,28.186855 C222.776576,27.9284055 222.799479,27.6653708 222.794425,27.4021309 C222.82596,26.1701141 222.137438,25.623423 220.954861,25.9373126 C220.815579,25.9765488 220.692066,26.026248 220.544901,26.0733315 C219.583071,26.4133786 218.755267,26.9966901 217.916952,27.545997 C217.706954,27.7242693 217.517461,27.925165 217.351942,28.145003 C218.471449,29.002968 219.438534,29.9210952 220.000915,31.3335985 L220.021939,31.3335985 Z M198.667224,40.8130653 L198.491152,40.650889 C198.404823,40.7439269 198.324925,40.8426795 198.252008,40.9464684 C198.252008,40.9595471 198.330847,41.0354038 198.375522,41.0851029 L198.667224,40.8130653 Z M189.687522,31.9509148 L189.564009,31.8645951 L189.364285,32.1601745 L189.445751,32.2203367 L189.687522,31.9509148 Z M215.822476,53.1384647 C215.935478,52.7356397 215.935478,52.7356397 215.698962,52.5577689 C215.717358,52.7487184 215.746266,52.8690428 215.801453,53.1358489 L215.822476,53.1384647 Z M189.20398,32.9972135 C189.138367,33.0693798 189.079437,33.1472968 189.027907,33.230015 C189.005828,33.3068469 188.991738,33.3857335 188.98586,33.4654322 C189.133025,33.4654322 189.182956,33.40527 189.198724,33.3346449 C189.20322,33.2245357 189.197943,33.1142464 189.182956,33.0050608 L189.20398,32.9972135 Z M224.820574,28.4458139 C224.785244,28.4663555 224.751825,28.4899907 224.720712,28.5164391 C224.749288,28.5719619 224.78459,28.623791 224.82583,28.6707681 C224.858787,28.6581498 224.889089,28.6395207 224.91518,28.6158374 C224.881728,28.558355 224.843021,28.5040663 224.79955,28.4536611 L224.820574,28.4458139 Z" id="Shape"></path>
                <path d="M110.350109,41.7022737 C110.281465,41.720902 110.189059,41.7155796 110.146816,41.7608198 C109.985766,41.9364583 110.244502,42.2930576 109.901281,42.3888604 C109.610862,42.4713572 109.650465,42.764088 109.515816,42.9210981 C109.294042,43.187217 109.307243,43.7833232 108.697364,43.6023624 C108.663042,43.6023624 108.531034,43.793968 108.499352,43.9110603 C108.46767,44.0281526 108.549515,44.2703207 108.486151,44.3128998 C107.863071,44.7519959 107.889473,45.5503525 107.474967,46.1038797 C107.276954,46.3699986 107.121184,46.6361175 106.603711,46.5749101 C107.034059,47.0858584 106.725159,47.4318129 106.566749,47.7884122 C106.408339,48.1450114 106.437381,48.6293478 105.880305,48.7065222 C105.79054,48.7065222 105.64005,49.0178813 105.679653,49.1190065 C105.782619,49.3851254 105.531803,49.5953593 105.550284,49.7177739 C105.64005,50.2713012 105.199142,50.1355806 104.900803,50.2846071 C104.985289,50.4496008 105.061853,50.6012886 105.143699,50.7556375 C104.586623,51.7828563 103.644083,51.8999486 102.79923,51.1335263 C101.954376,50.367104 101.479146,49.2706942 100.879828,48.3126663 C100.372916,47.490359 99.9372882,46.6228115 99.4541375,45.7871983 C98.7597734,44.5870022 98.0548487,43.3921285 97.3420034,42.199916 C97.2733591,42.0801625 97.178313,41.9763761 97.0278235,41.7741258 C96.9665412,41.9562818 96.9162856,42.1420195 96.8773339,42.3303142 C96.7796477,43.1286708 96.7136436,43.9270274 96.6001163,44.725384 C96.4100243,46.0772678 96.1512879,47.4211681 95.9928778,48.7757132 C95.6892585,51.3783557 95.0873003,53.9171297 94.4589404,56.4505813 C94.3242919,56.982819 94.1183588,57.5150567 93.9573086,58.0472945 C93.8574432,58.5469969 93.420143,58.905202 92.9144424,58.901536 C92.6741871,58.901536 92.436572,58.9627434 92.167275,59 C91.5864381,58.2415612 91.1112079,57.4698165 91.0821661,56.4638872 C91.002961,54.2417947 90.955438,52.0223633 91.0610447,49.8109155 C91.1904129,47.06723 91.5098732,44.3474952 91.853095,41.6304216 C92.1171118,39.5014707 92.5078566,37.3858257 92.8378775,35.2648583 C93.0886934,33.6468556 93.2840658,32.0182081 93.600886,30.4161726 C94.1896433,27.4516084 94.8417647,24.5003502 95.4859656,21.5464307 C95.7499824,20.3781689 96.0139991,19.2125683 96.3176184,18.0549512 C96.6696408,16.7083897 97.035744,15.3662636 97.4159281,14.0285728 C97.7221876,12.9640973 98.0522085,11.8809935 98.3927901,10.8138569 C99.0765104,8.59462801 99.9410277,6.43615357 100.977514,4.36047435 C101.049964,4.23392588 101.115194,4.10331557 101.172887,3.96927961 C101.484522,3.17563933 102.019538,2.49113872 102.712104,2 C103.345745,2.26611887 103.546397,2.88617583 103.768171,3.5967132 L103.926581,3.13898875 C103.963544,3.16293945 104.029548,3.18689014 104.029548,3.20817965 C104.04751,3.54522034 104.030698,3.88323002 103.979385,4.21677016 C103.417029,6.64111303 102.817711,9.05481115 102.257995,11.4764928 C101.967577,12.7352351 101.745803,14.0072833 101.465945,15.2686867 C101.294334,16.0537373 101.06464,16.825482 100.898309,17.6105327 C100.689736,18.5871889 100.518125,19.5718288 100.335953,20.5538074 C100.103619,21.7956954 99.8739242,23.0375835 99.6468697,24.2794715 C99.5623844,24.7345348 99.4884597,25.1869368 99.4066145,25.6526448 C99.9135267,25.6313553 100.034974,25.2002428 100.28579,24.9048508 C100.768941,24.3353565 101.286414,23.7951352 101.769564,23.2256408 C102.337201,22.5576824 102.873155,21.860451 103.443431,21.1951538 C103.612401,20.9982259 103.873778,20.8837948 104.05595,20.6948504 C104.607745,20.1306784 105.127858,19.5345721 105.684933,18.9730613 C106.58787,18.0629348 107.52249,17.1687754 108.435988,16.2666324 C109.082829,15.6279471 109.72703,14.9839395 110.36859,14.342593 C110.433218,14.2694687 110.501977,14.2001627 110.574523,14.1350203 C111.559306,13.3233578 112.554649,12.52234 113.536791,11.7053551 C114.650968,10.7757529 115.846593,9.95005504 117.108938,9.23843317 C117.900988,8.79667585 118.693039,8.35491853 119.485089,7.9637238 C120.606484,7.42734807 121.797583,7.053734 123.022914,6.85400812 C123.619184,6.72126289 124.243354,6.83330133 124.757504,7.1653672 C125.087525,7.39422942 125.465069,7.64970353 125.375303,8.28306644 C124.907993,7.67631542 124.427483,7.7508287 123.844006,7.99299687 C122.366645,8.6110559 120.960761,9.39009148 119.65142,10.3162146 C118.695679,11.0640086 117.705616,11.7718848 116.778917,12.5542742 C115.852218,13.3366637 115.015285,14.1509874 114.154591,14.9679724 C113.19181,15.8887436 112.240469,16.8237079 111.30057,17.7728652 C110.616766,18.4647743 109.962005,19.1832952 109.299322,19.9018161 C108.520473,20.7347682 107.728423,21.5570755 106.981255,22.4166394 C105.977992,23.5742565 104.987929,24.7425183 104.037468,25.9400532 C102.302878,28.1328727 100.605251,30.3496428 98.8891416,32.5584294 C98.6543806,32.8394813 98.4366131,33.1345195 98.2370203,33.4419441 C98.0802089,33.6852594 97.9700583,33.9560586 97.9122796,34.2403007 C97.6905056,35.6587142 97.4713717,37.0824502 97.3103214,38.4982025 C97.1928868,39.1408922 97.316122,39.8046438 97.6561834,40.3610346 C98.1314606,41.0573951 98.5065643,41.8180553 98.7703341,42.6203838 C99.1056354,43.738083 99.7867986,44.5976469 100.462682,45.486484 C100.605251,45.6727672 100.605251,46.1278304 100.726698,46.1464588 C101.112163,46.2103273 101.120083,46.4950745 101.157046,46.7292591 C101.262347,47.4420013 101.602745,48.0982205 102.123347,48.5920911 C102.30767,48.7738056 102.432885,49.0076686 102.48241,49.2627107 C102.561615,49.8534946 103.039485,50.0051823 103.411749,50.2846071 C103.921301,50.0823568 104.029548,49.5953593 104.230201,49.196181 C104.597184,48.4563705 104.906084,47.687287 105.286268,46.9527989 C106.165435,45.2421932 107.18641,43.6095136 108.338301,42.0721789 C108.731686,41.5399412 109.040586,40.9385125 109.507896,40.4994164 C110.20754,39.8394416 110.68013,38.9931836 111.416737,38.3704655 C112.24839,37.6625893 112.987637,36.8456044 113.82193,36.1457118 C114.512331,35.5747873 115.12487,34.9144207 115.643645,34.1817545 C116.879244,32.4333536 118.209888,30.7541435 120.13193,29.6577338 C120.715407,29.3197628 121.335847,29.2319436 121.948365,29.0563051 C122.212827,28.9625185 122.487692,28.9017455 122.766817,28.8753443 C123.980333,28.7748953 125.173882,29.232642 126.014224,30.1207806 C126.339887,30.4075788 126.603249,30.7591076 126.787793,31.1533218 C126.866998,31.3608945 127.096692,31.5072599 127.244542,31.6855595 C127.380707,31.8528605 127.503423,32.0308369 127.611525,32.2177973 C127.809537,32.5797189 127.746173,33.0853448 128.276847,33.2822727 C128.393015,33.3221906 128.451098,33.7320136 128.422056,33.9582147 C128.229324,35.5389607 128.060353,37.1276904 127.775215,38.6951305 C127.447835,40.5047388 127.37391,42.327653 127.247182,44.1505673 C127.257455,44.2114309 127.276117,44.2705489 127.302625,44.3262057 C127.566642,44.2916103 127.69073,44.076054 127.812178,43.8871096 C128.32173,43.088753 128.831282,42.2903964 129.319713,41.4680891 C129.919031,40.4674821 130.491948,39.4509081 131.078065,38.4423176 C131.606098,37.5242075 132.157893,36.6087586 132.688567,35.6853261 C132.868099,35.3686447 132.992186,35.0200289 133.184919,34.7086699 C133.464776,34.258929 133.781597,33.8304776 134.082576,33.3780755 C134.139468,33.3003351 134.190648,33.2185074 134.235705,33.1332462 C134.695095,32.2364256 135.069998,31.2704141 135.640275,30.4720575 C136.070622,29.8546617 136.168308,29.1281572 136.574894,28.5081003 C136.98148,27.8880433 137.161011,27.177506 137.506873,26.5388207 C138.074979,25.5254688 138.56656,24.4704284 138.977446,23.3826509 C139.068749,23.2189837 139.180553,23.0678305 139.310108,22.93291 C139.447396,23.0925814 139.558283,23.1990289 139.650689,23.3347495 C139.743095,23.4704701 139.853982,23.6673981 139.967509,23.8244082 C140.081036,23.9814184 140.61699,23.9920631 140.345053,24.3220505 C140.210405,24.484383 140.540426,24.8995285 140.081036,24.8063869 C140.081036,24.8675942 140.046714,24.9367851 140.081036,24.9846865 C140.345053,25.5169242 140.147041,25.9906158 140.044074,26.5122088 C139.98335,26.8129231 139.780057,26.7091367 139.642769,26.8688081 C139.642769,27.1642 140.094237,27.459592 139.624287,27.9173164 L139.473798,27.4329801 L139.339149,27.5341052 L139.075133,28.2233531 L139.521321,28.4548765 C139.403751,28.9736507 139.315602,29.4987559 139.257304,30.027639 C139.263269,30.51826 138.987605,30.9682266 138.549739,31.1825949 C138.888246,31.4398456 138.998863,31.9025608 138.813756,32.2869882 C138.620439,32.7738723 138.578994,33.3085945 138.694948,33.8198329 C139.112095,33.2875951 139.518681,32.7553574 139.954308,32.2231197 C140.218325,31.8957935 140.558907,31.6190298 140.846685,31.3023484 C141.059189,31.0764584 141.248484,30.8294854 141.411681,30.5651991 C141.596493,30.25384 141.675698,29.8919184 142.161489,29.8786124 C142.296137,29.8786124 142.425505,29.6124936 142.546953,29.4794341 C142.855853,29.1254961 143.159472,28.7635744 143.476292,28.4149587 C143.526455,28.3617349 143.653183,28.3883468 143.727108,28.348429 C144.062409,28.1701293 144.39771,27.9918297 144.719811,27.7895793 C144.852472,27.6839945 144.976113,27.5673806 145.089434,27.4409636 C145.216162,27.3265325 148.091305,25.655306 148.257635,25.6207106 C148.474129,25.5754704 148.698543,25.5648256 149.025924,25.5249078 C149.191,25.2247116 149.51239,25.0466947 149.852297,25.0671833 C150.485937,25.048555 151.119577,24.9767029 151.753217,24.9234792 C151.96612,24.8667873 152.188694,24.9722297 152.281251,25.1736309 C152.566389,25.7058686 152.912251,26.2008497 153.239632,26.7064756 C153.361079,26.8927588 153.403322,27.1908119 153.767665,27.0843643 C153.817828,27.0683972 154,27.2653252 154,27.3504832 C153.99954,27.5113128 153.932561,27.6646633 153.815188,27.7736122 C153.548116,27.9363588 153.266068,28.072713 152.972975,28.1807741 C151.850283,28.6377527 150.803989,29.2660397 149.870778,30.0436061 C148.466209,31.2225127 147.167246,32.5291564 145.791719,33.7453196 C144.400351,35.030365 143.144846,36.4572868 142.045321,38.0032214 C140.382016,40.2332975 138.87712,42.5511929 137.892338,45.1884308 C137.644162,45.8643728 137.261337,46.4977357 137.063325,47.1843223 C136.799308,48.1157384 136.638258,49.0790887 136.448166,50.029133 C136.35048,50.5054858 136.295036,50.9898221 136.20263,51.4688361 C136.197669,51.6187208 136.12373,51.7577247 136.002625,51.8448426 C135.88152,51.9319604 135.727068,51.9572513 135.584831,51.9132546 C135.381538,51.8813203 135.157124,51.9930902 134.94327,51.9824455 C134.642291,51.9664784 134.219864,52.0090574 134.064094,51.8334189 C133.694886,51.4036627 133.393866,50.9189149 133.171718,50.396377 C132.873379,49.7124516 132.957864,48.9886082 133.015948,48.2461366 C133.166438,46.3034689 133.771036,44.4778935 134.291149,42.6310285 C134.545128,41.738714 134.871862,40.8690917 135.268011,40.0310472 C135.693078,39.1235819 135.748521,38.1469256 135.920132,37.1942201 C136.20527,35.5975069 136.448166,34.0220832 136.712183,32.4333536 C136.754425,32.1672347 136.778187,31.9011158 136.815149,31.6137075 L135.711559,32.0528036 C135.949174,32.1619123 136.239593,32.2337644 136.173588,32.6329427 C136.107584,33.032121 135.922772,33.229049 135.381538,33.3115458 C135.291772,33.5004902 135.191446,33.6894346 135.117521,33.8837014 C135.062078,34.0114384 134.961751,34.1684486 134.996074,34.2748961 C135.217848,34.9189038 134.845584,35.3553387 134.581567,35.8316915 L134.428438,35.7917737 L134.692454,34.7751996 C134.363453,34.9015416 134.145301,35.2186894 134.1433,35.5735562 C134.1433,35.8769317 134.209304,36.1483729 133.924166,36.3586068 C133.880028,36.406442 133.863111,36.4736472 133.879283,36.5369065 C134.180262,36.9227788 133.908325,37.1968813 133.731433,37.5162239 C133.467417,38.0032214 133.277325,38.5381204 132.989546,39.0118119 C132.448312,39.8953266 132.113011,40.874644 131.611379,41.7821093 C131.281358,42.3755544 130.985659,42.990289 130.663559,43.5890564 C130.21473,44.4220085 129.760621,45.2496382 129.290671,46.0692843 C129.187065,46.1982827 129.061994,46.3081405 128.921048,46.3939493 C128.873525,46.4312059 128.781119,46.4365283 128.759998,46.4817685 C128.47222,47.0965031 128.184441,47.4078622 127.703931,47.503665 C127.043889,47.6340632 126.304642,47.8948597 125.779249,47.306737 C125.343447,46.8197236 125.005432,46.252181 124.783905,45.6355105 C124.271713,44.1904851 124.216269,42.6682852 124.284914,41.1434241 C124.322518,40.7377421 124.299378,40.3286664 124.216269,39.929922 C123.830805,40.5260283 123.44006,41.1194734 123.059876,41.720902 C121.927244,43.5172044 120.741809,45.2735889 119.263315,46.8090947 C118.955585,47.1209971 118.632179,47.416778 118.294373,47.6952706 C117.349193,48.5122555 116.203361,48.7198282 115.025846,48.6532985 C114.513761,48.6144409 114.049448,48.3356058 113.771766,47.9001821 C112.557289,46.1331528 112.425281,44.174518 112.691938,42.1413698 C112.837147,41.0343153 113.087963,39.943228 113.309737,38.7483543 C112.694578,39.1235819 112.311754,39.6558196 111.876126,40.1374947 C111.440498,40.6191699 110.930946,41.114151 110.458356,41.5984873 C110.582444,41.4627667 110.722373,41.3323685 110.542841,41.114151 C110.228661,41.2924506 110.160017,41.4601055 110.350109,41.7022737 Z M122.901466,34.8550352 C122.658867,34.7228844 122.409458,34.6038494 122.154298,34.498436 C121.024307,34.1072412 119.96824,34.4052944 118.909533,34.8204398 C118.197425,35.0820798 117.621056,35.6236673 117.312231,36.3213502 C116.784198,37.4496942 116.277285,38.5806994 115.799415,39.7276717 C115.635814,40.1859521 115.501766,40.6544104 115.39811,41.1301181 C115.302762,41.6085127 115.172151,42.0790739 115.007365,42.5378869 C114.806712,42.9876278 114.9308,43.4187404 114.92552,43.8684813 C114.92552,44.3767683 114.92552,44.8877165 114.944001,45.3960035 C114.966499,45.5768599 115.006287,45.7551011 115.062808,45.9282413 C116.079273,45.7472805 116.287846,44.7519959 116.990131,44.3315281 C117.096422,44.26907 117.186817,44.1825114 117.254147,44.0787152 C117.76634,43.2989869 118.278532,42.5192586 118.777524,41.7315468 C119.688382,40.2891825 120.60188,38.8494794 121.488976,37.3938092 C121.964206,36.5954526 122.389273,35.7731453 122.901466,34.8550352 Z M123.461181,33.7346748 C123.74896,33.2609832 123.989215,32.8405154 124.253232,32.4413371 C124.517248,32.0421588 124.633416,31.5578225 125.098085,31.2917036 C125.210704,31.2122351 125.27438,31.0795824 125.266307,30.9412538 C125.258234,30.8029252 125.179568,30.6787123 125.058483,30.6131005 C124.654537,30.4268173 124.266433,30.1926327 123.75424,30.3123862 C122.428783,30.6297028 121.22568,31.3341699 120.29562,32.3375508 C120.155692,32.4839161 120.031604,32.6462487 119.907516,32.8005976 L119.957679,32.9363182 C121.2276,32.622298 122.291587,33.1891311 123.461181,33.7346748 Z M136.949798,30.1527149 L136.300316,30.4747187 L136.300316,30.6290677 C136.456086,30.6689855 136.635618,30.775433 136.767626,30.7355152 C136.98412,30.6583407 137.081806,30.4587516 136.949798,30.1527149 Z M138.797915,29.4741118 C139.167538,29.5433027 139.127936,29.3490359 139.178099,29.0110649 L138.797915,29.4741118 Z M131.537454,40.6670713 L131.661542,40.77618 L131.872755,40.4621598 L131.777709,40.3903077 L131.537454,40.6670713 Z M138.272522,34.2802185 L138.24612,34.1817545 L137.889697,34.2695737 L137.921379,34.3840049 L138.272522,34.2802185 Z M127.035968,38.0404781 L127.233981,38.0404781 L127.233981,37.630655 L127.123094,37.6146879 L127.035968,38.0404781 Z" id="Shape"></path>
                <path d="M31.3129014,43.7683873 C31.2624011,43.7843631 31.1720319,43.7950137 31.169374,43.8189774 C31.1428382,43.9301283 31.1428382,44.0459811 31.169374,44.157132 C31.3075856,44.4979492 31.1295053,44.6417315 30.8902929,44.8733807 C30.1886032,45.5523525 29.3433861,45.5070877 28.498169,45.4059076 C28.1446638,45.3360859 27.8209608,45.1595451 27.5705565,44.900007 C27.1008978,44.407438 26.7714299,43.7978974 26.6163649,43.1346803 C26.3401655,42.0424953 26.2716388,40.9079901 26.4143633,39.7904113 C26.5318564,38.9952061 26.6915577,38.2068365 26.8927881,37.4286544 C26.9220252,37.2875347 26.959236,37.1623909 27.0123943,36.936067 C26.6376282,37.0345845 26.2150197,37.0265966 26.0369394,37.2289568 C25.858859,37.431317 25.8721486,37.846688 25.8030428,38.1768547 C25.5957254,38.1262646 25.4123292,38.0224219 25.2714597,38.0676867 C25.1784327,38.0996383 25.1810906,38.3525886 25.0960373,38.4724071 C24.9555326,38.6522583 24.8018331,38.8213609 24.6362179,38.9783077 C24.4687693,39.1460537 24.2401885,39.2765228 24.131214,39.4708951 C23.8654225,39.9501693 23.6953159,40.4853589 23.4056031,40.9459947 C23.1158903,41.4066305 22.8261775,41.9045431 22.842125,42.5062985 C22.842125,42.5915028 22.5524123,42.6554061 22.5098856,42.772562 C22.3637003,43.1799451 22.1670145,43.5713524 22.0394346,43.9760728 C21.971018,44.3271852 21.8472023,44.6651371 21.6726423,44.9772234 C21.4270605,45.2971692 21.3302799,45.7072779 21.4068507,46.1035179 C21.4706407,46.4443351 21.0985325,46.8490555 21.0241109,47.2431255 C20.989558,47.4268473 21.2021912,47.6558338 21.3483766,47.9513863 C20.7343981,48.0658796 20.141683,48.084518 19.6499686,47.7144118 C18.6698157,46.9498779 17.7734999,46.08321 16.9761057,45.1289936 C16.1787311,44.1970715 15.3095928,43.2997636 14.5122181,42.3545284 C13.8211601,41.5317743 13.1832604,40.6717433 12.5267553,39.814375 C11.9809967,39.1043391 11.4494136,38.3818776 10.9320061,37.6469904 C10.6848199,37.2981853 10.5014238,36.8987901 10.2542377,36.549985 C9.31233879,35.2235958 8.46246502,33.8339826 7.7106126,32.3909497 C7.3996365,31.7971822 7.11258164,31.1927642 6.80426345,30.596334 C6.70636927,30.4461288 6.59707147,30.3037004 6.47733985,30.1703125 C6.3816549,30.6575746 6.27533828,31.0223556 6.2434433,31.3924618 C6.19028499,31.9942172 6.27533828,32.622599 6.13446877,33.1950654 C5.98030967,33.8207845 6.18231124,34.4385157 6.03878381,35.0402712 C5.79957142,36.0307712 5.87133514,37.0478976 5.73843937,38.0490482 C5.65338608,38.6960684 5.70388647,39.3617271 5.67996523,40.0193978 C5.61883318,41.6515928 5.54441155,43.2864505 5.48062158,44.9186455 C5.41683161,46.5508405 5.37430496,48.113807 5.29722541,49.7273635 C5.2254617,51.2290894 5.09522384,52.7308154 5.03143387,54.2325413 C4.99953889,55.0819217 5.06332886,55.9339648 5.08459218,56.7860078 C5.10053967,57.3797753 4.73906318,57.739231 4.15166387,57.8670375 C3.67058118,57.9735429 3.19481432,57.827098 2.70575789,57.9655549 C2.28049142,58.0880361 2.10241109,57.877688 1.90838326,57.433028 C1.73561876,57.0629218 1.46982722,56.7380804 1.29706272,56.3679742 C1.09622191,55.9830706 0.947827403,55.5729178 0.855848762,55.1484876 C0.590057221,53.6094848 0.32426568,52.0678193 0.175422417,50.5155034 C0.0558162236,49.1469092 0.0611320544,47.749026 0.0265791541,46.3564682 C0,45.235499 0,44.1118672 0,42.9882354 C0,42.5489007 0.0265791541,42.109566 0.045184562,41.6702313 C0.138211601,39.5933763 0.183396163,37.5138587 0.337555257,35.4396663 C0.497030182,33.3095587 0.749532146,31.1634752 0.978112871,29.0253796 C1.11100864,27.7872545 1.22795692,26.5438042 1.43527432,25.3163296 C1.66119713,23.9637113 1.98546281,22.632394 2.26454393,21.3010767 C2.27770005,21.2537465 2.2883466,21.2057519 2.29643891,21.1572944 C2.42667677,19.5144489 2.89978571,17.9621329 3.35960508,16.3831906 C3.6572916,15.3873653 3.86195109,14.362251 4.17292719,13.3664256 C4.5025087,12.3013718 4.90385393,11.2629443 5.27862,10.2138663 C5.54441155,9.45767805 5.77565019,8.68285139 6.10788961,7.95595214 C6.80426345,6.42493726 7.55113768,4.91788608 8.29003816,3.41083491 C8.87482007,2.31464849 9.63129902,1.31950134 10.5306609,0.463298418 C10.7068591,0.298380931 10.8923302,0.143695457 11.0861652,0 C11.5353529,0.22632394 11.9340402,0.407383092 12.1307259,0.881332048 C12.1998317,1.04907803 12.4310704,1.14759551 12.6144665,1.29936568 C12.6183572,1.35665838 12.6129718,1.41420434 12.598519,1.46977429 C12.2503321,2.47358753 11.8835398,3.46142496 11.5539583,4.48121401 C11.3652463,5.05634308 11.2509559,5.65543586 11.0835073,6.2358902 C10.6608987,7.7216403 10.1824739,9.17011352 9.83428702,10.6505383 C9.74657581,11.0339577 9.33725684,10.9567413 9.33459892,11.2389806 C9.33459892,11.4706298 9.52596883,11.7209174 9.4861001,11.9365909 C9.35320433,12.6741406 9.14854484,13.3957146 8.986412,14.1252765 C8.89338496,14.5486354 8.8482004,14.9799822 8.75783128,15.4033411 C8.49203974,16.5935387 8.22624819,17.7837364 7.96045665,18.9739341 C7.87540336,19.3759919 7.80363964,19.7727244 7.73719176,20.1827702 C7.63087514,20.8510914 7.5883485,21.5327259 7.42089982,22.1850714 C7.07802874,23.5163887 7.24547741,24.9089466 6.86273759,26.2269507 C6.8467901,26.2802034 6.90526424,26.3547571 6.97437004,26.5517921 C7.32787279,26.0698552 7.61226973,25.6438337 7.93653541,25.2497638 C8.42824977,24.6559963 8.93856952,24.0782046 9.4515472,23.5030755 C10.0681836,22.8161158 10.6715304,22.1211681 11.312088,21.4714853 C11.8436711,20.9389584 12.4443599,20.4809852 12.9998643,19.9697594 C13.5553686,19.4585336 14.14011,18.8780792 14.7115618,18.3322391 C14.9079668,18.1144767 15.1292005,17.9205535 15.3707248,17.7544474 C16.1526991,17.2699126 16.8814581,16.704077 17.5448996,16.0663371 C18.1801414,15.5045212 18.9084102,15.0492107 19.5516258,14.4927201 C20.5642915,13.6167133 21.7098531,12.9430667 22.8208617,12.2135048 C24.2773994,11.2602817 25.7489985,10.3292471 27.2356592,9.42040117 C28.8995143,8.41126266 30.5819747,7.43407577 32.269751,6.45955151 C32.9634669,6.06015632 33.683762,5.70336328 34.3960833,5.33858235 C34.5722728,5.25621041 34.7567057,5.19283852 34.9462718,5.14953529 C35.443302,5.02172883 35.7436464,5.16284846 36.0652542,5.58088209 C36.2513083,5.83383238 36.479889,6.05483105 36.6978381,6.2971308 C36.166255,6.60865904 35.5868294,6.92817519 35.0286672,7.30094404 C32.5319986,8.9659782 30.0406459,10.6381127 27.5546091,12.3173476 C26.4462583,13.0655479 25.3325918,13.8057603 24.2694256,14.609876 C22.8580725,15.7095441 21.4653249,16.8651275 20.0486559,17.9781087 C19.1502805,18.6810443 18.225326,19.3467029 17.3296085,20.0496384 C17.0452115,20.2732997 16.8246045,20.5821654 16.5561551,20.8218025 C14.9906429,22.2489746 13.3666566,23.6202314 11.8675923,25.1086442 C10.6077404,26.3547571 9.31865143,27.587557 8.2794065,29.0360302 C8.11033921,29.3084616 7.96025298,29.5922635 7.8302188,29.8854106 C8.20807872,30.09343 8.53991482,30.3760367 8.80567375,30.7161526 C8.59038261,30.6948515 8.3990127,30.7321284 8.40698644,30.982416 C8.40698644,31.0569698 8.5372243,31.1261983 8.67277798,31.2726432 L8.77643668,30.684201 C9.04222822,31.2433542 9.30801977,31.8051701 9.57381131,32.3589981 C9.74391789,32.7104659 10.0389465,33.008681 10.0176832,33.424052 C10.525345,33.3228719 10.3871334,33.8287724 10.5678717,34.0337953 C10.7662955,34.2767907 10.9441083,34.5359675 11.0994548,34.8086219 C11.1575415,34.9125858 11.1962685,35.0262664 11.2137451,35.1441139 C11.2961405,35.6020871 11.3041142,36.0840239 11.9446719,36.1692282 C12.0695939,36.185204 12.1519893,36.4701059 12.2636217,36.6245387 C12.6543353,37.1570657 13.0609963,37.708231 13.4384203,38.2567337 C13.5512859,38.4210092 13.6407437,38.6002426 13.7042119,38.7892607 C13.8052126,39.0821505 13.8158443,39.3936787 14.2623741,39.4336182 C14.4112174,39.4469314 14.5972714,39.7318333 14.6584035,39.9262056 C14.8152205,40.4108051 15.1687232,40.724996 15.5009627,41.0658132 C16.0312937,41.5981956 16.453703,42.2284136 16.7448671,42.9216695 C17.3721351,43.187933 17.2764502,44.0053618 17.8930865,44.375468 C18.5097229,44.7455742 18.8818311,45.4165581 19.3682296,45.9544103 C19.607442,46.2206738 19.8599439,46.4736241 20.202815,46.8330797 C20.3296305,46.59418 20.4440726,46.3488924 20.5456861,46.0981926 C20.9922159,44.7668753 21.4068507,43.4169196 21.8746438,42.1042407 C22.089935,41.4998227 22.435464,40.943332 22.6720184,40.3495645 C22.8341513,39.9608199 23.0175475,39.6599422 23.6474734,39.7770981 L23.2966286,39.3457513 C23.7701958,38.4630375 24.3455869,37.63908 25.010984,36.8908022 C25.5546762,36.2423031 26.1521816,35.6410646 26.7971032,35.0935239 C27.0789338,34.8390574 27.3792159,34.6058811 27.6954786,34.3959136 C28.2270617,34.1003611 28.4210895,33.5518584 28.7347235,33.0992105 C29.2875699,32.3004202 29.7978897,31.4670155 30.3294727,30.654912 C30.5759982,30.2352374 30.8645413,29.8418009 31.1906373,29.4806901 C31.8521207,28.8317506 32.5467705,28.2176315 33.2717851,27.6408096 C33.5529706,27.4617723 33.8647458,27.3362992 34.1914238,27.2707034 C34.6698486,27.1269212 35.158905,27.00444 35.6399877,26.8872841 C35.9959793,26.795192 36.374148,26.8549581 36.6845485,27.0523674 C37.5681632,27.5081213 38.3300583,28.1691158 38.9065658,28.9801148 C39.0022507,29.1212345 39.214884,29.1771498 39.3371481,29.3102815 C39.7785524,29.7914718 40.0680055,30.3927132 40.1690756,31.0383314 C40.2461551,31.5708583 40.4215776,32.0820841 40.4109459,32.6359121 C40.3923405,33.4639915 39.9856794,33.9033262 39.1457782,33.8766998 C38.4786414,33.8527361 37.8168205,33.7196044 37.0752621,33.6237496 C37.0221037,34.3426609 36.9609717,35.0642349 36.9237609,35.7884715 C36.889208,36.4434796 36.889208,37.1011503 36.8652867,37.7588211 C36.854665,38.8692836 36.9159256,39.9792678 37.0486829,41.081789 C37.1975262,42.8045136 37.7503726,44.4100823 38.4201673,45.9730488 C38.7946914,46.9044007 39.3669699,47.7429918 40.0973119,48.4306605 C40.3631034,48.6623097 40.8308965,48.6543218 41.2136363,48.7315382 C41.3757692,48.7661525 41.5538495,48.7315382 41.7212982,48.7448514 C42.8748335,48.8886336 43.5977865,48.2602519 44.1346854,47.3576188 C44.6485735,46.4969555 45.0420752,45.5696886 45.3041682,44.601792 C45.4103547,44.3638114 45.5432185,44.1387032 45.7001976,43.930808 C46.0031999,44.3701427 46.2025436,44.6976468 46.439098,44.9958619 C47.4305005,46.2606133 46.9228386,47.4747747 46.3301235,48.688936 C46.2663335,48.8194051 46.2131752,48.9551995 46.1493853,49.0803433 C45.5327489,50.3717211 44.5147673,51.0560182 43.0927825,51.2610411 C41.2322418,51.5273045 39.7943095,50.8030679 38.460036,49.6155329 C37.3176074,48.5819329 36.3751367,47.3462415 35.6798565,45.9703861 C35.0157595,44.636762 34.5671921,43.2059876 34.3508988,41.7314719 C34.281793,41.2974624 34.2525559,40.8607904 34.1887659,40.4267809 C34.1363786,40.2814034 34.0667758,40.1428445 33.9814485,40.0140726 C33.4339179,40.8128629 33.1282577,41.6462676 32.6524908,42.4104437 C32.2644352,42.4104437 31.8551162,42.3784921 31.6451409,42.9163443 L32.2883564,42.7113214 L32.3813834,42.83114 C32.2883564,42.9216695 32.1900135,43.0974034 32.1155919,43.0974034 C31.5680613,43.0441507 31.3873231,43.3636669 31.3182173,43.8189774 L31.3129014,43.7683873 Z M28.7878818,43.2092341 C28.8849757,43.176025 28.9799518,43.1369001 29.0722788,43.0920781 C29.6471383,42.6826266 30.1008118,42.1251078 30.385289,41.4785216 C31.1162157,40.0007594 31.9295378,38.5496235 32.6578066,37.0825119 C33.2292585,35.9295911 33.7209728,34.7393935 34.2525559,33.562509 C34.2871088,33.4879552 34.2525559,33.3867751 34.2525559,33.2190291 C33.6066824,33.336185 33.0192831,33.4347025 32.4345417,33.5545211 C32.1257233,33.6002477 31.8250029,33.6899067 31.5414822,33.8207845 C30.8265029,34.2121918 30.257709,34.7447187 30.0955762,35.6047497 C30.0607982,35.8223586 29.9907704,36.0328152 29.8882588,36.2278062 C29.5555914,36.866654 29.3097671,37.5472292 29.157332,38.2514085 C28.9951992,38.8611518 28.9207776,39.4975215 28.7081443,40.0886263 C28.5247482,40.5945269 28.3572995,41.0764638 28.5167744,41.5424248 C28.3626153,41.8566157 27.7512948,41.4385821 27.8895064,42.0563133 C28.466274,41.8246641 28.4609582,41.8246641 28.5699327,42.3758294 C28.625749,42.6394303 28.7054864,42.8923806 28.7878818,43.2092341 Z M38.6407742,32.6625385 C38.7364592,32.4761541 38.9544082,32.2471675 38.9437766,32.0288314 C38.8799866,30.7214779 38.3882723,29.6164845 37.2560003,28.8736095 C36.8740218,28.5830426 36.3637234,28.5257877 35.9270426,28.7245019 C35.1961159,29.0972708 34.4200046,29.4460759 33.8007103,29.9732775 C33.1626768,30.5148356 32.6339894,31.1737049 32.2431718,31.9143382 C32.1368552,32.1166984 31.9215641,32.425564 31.9773803,32.5240815 C32.2431718,32.8888624 32.3096197,32.3856245 32.5089634,32.3403597 C33.0033356,32.2311917 33.5056817,32.3589981 34.0027118,32.2232038 C34.4129123,32.1406626 34.828712,32.0890404 35.2466163,32.068771 L35.8419893,32.6012979 C35.9096376,32.4442255 36.0432881,32.3252579 36.2069497,32.276432 C36.3706112,32.2276061 36.5474572,32.253942 36.6898643,32.3483476 C37.0327354,32.5613584 37.3756065,32.4095882 37.6998722,32.5214188 C38.0091945,32.5937985 38.3238547,32.6409923 38.6407742,32.6625385 Z M36.4134411,41.7687488 L36.8440234,41.1749812 C36.3948357,41.2841493 36.3948357,41.2841493 36.4134411,41.7687488 Z M40.1345227,32.6332495 C40.2222339,32.3323718 40.3046293,32.1007226 40.0707327,31.8664107 C39.7863358,32.1699511 39.9484686,32.3829618 40.1345227,32.6332495 Z M36.6579693,33.5784848 L36.6739168,33.4213893 L36.2034658,33.3707993 L36.1875183,33.5278947 L36.6579693,33.5784848 Z M5.7783081,32.6012979 C5.61883318,32.7291043 5.53112197,32.7717065 5.49391115,32.840935 C5.46087953,32.947764 5.44561422,33.0593086 5.44872659,33.1711017 C5.59491194,33.0965479 5.70122855,33.0752468 5.73046562,33.0166689 C5.76345344,32.8807186 5.77952301,32.7412017 5.7783081,32.6012979 Z M32.8119657,40.804875 L32.6631225,40.8581277 C32.6631225,40.943332 32.6631225,41.060488 32.7056491,41.1057527 C32.8472927,41.1884351 32.9992234,41.2520012 33.1574947,41.2947998 C32.9794144,41.0418495 32.8943611,40.9246936 32.8119657,40.804875 Z M16.6252609,20.2360229 L16.590708,20.1295175 C16.497681,20.1614691 16.401996,20.1907581 16.3116269,20.228035 C16.3194753,20.269539 16.3301315,20.3104604 16.3435219,20.3505161 L16.6252609,20.2360229 Z M6.35241783,22.267613 C6.37278306,22.2020646 6.38352709,22.1338983 6.38431281,22.0652528 C6.38431281,22.0439517 6.30191744,22.0279759 6.25673288,22.0093375 C6.23457947,22.0710642 6.2211597,22.1355935 6.21686414,22.2010472 C6.21952206,22.2223483 6.29394369,22.2383241 6.35241783,22.267613 Z M6.99031753,22.5338765 L6.91058007,22.4992623 L6.91058007,22.80014 L6.95842254,22.80014 L6.99031753,22.5338765 Z M36.4134411,40.3841788 L36.2832033,40.3841788 L36.2832033,40.7383092 C36.3194891,40.7406951 36.355892,40.7406951 36.3921778,40.7383092 C36.3974936,40.6078401 36.4134411,40.4960094 36.4134411,40.3841788 Z M32.4983317,41.7793993 L32.3920151,41.8246641 L32.522253,42.0909275 C32.5581647,42.0729155 32.5927991,42.0524538 32.6259117,42.0296869 C32.5858423,41.9440722 32.5414874,41.8605369 32.4930159,41.7793993 L32.4983317,41.7793993 Z" id="Shape"></path>
                <path d="M55.0541968,8.74927432 L54.726668,9.03031003 L55.2945608,9.29543807 C54.9670319,9.81243774 54.5840344,10.3082272 54.6738407,11.034678 L54.0927411,10.8968114 C54.1172854,10.9895096 54.1536867,11.0786268 54.201037,11.1619394 C54.5919585,11.5702366 54.5945999,11.6444725 54.1085893,11.8592262 C53.8021914,11.9944415 53.6146547,12.1084465 53.9448249,12.4080412 L53.9263354,12.3894822 L53.3742907,13.0045793 L53.4165525,13.086769 L53.9448249,12.8216409 C53.9791626,12.8932255 54.0451966,12.983369 54.0267071,13.0045793 C53.938517,13.1351754 53.8253974,13.2469175 53.6938955,13.333338 C53.4783517,13.4084539 53.2792575,13.5245782 53.1075132,13.6753532 L53.6806887,13.7920095 C53.6991782,13.8450351 53.7493641,13.9166197 53.7387987,13.9749479 C53.7276222,14.2184224 53.6683651,14.4572419 53.5644688,14.6775372 C53.0678928,15.3774752 53.1180787,16.2152798 52.9173352,16.9894536 C52.7165917,17.7636275 52.4762277,18.5802219 52.2622774,19.375606 C52.2068088,19.5797545 52.1856779,19.791857 52.1354921,20.056985 C54.3463119,20.1206157 56.4778908,20.1100106 58.5909802,20.0172158 L59.3094306,20.8974409 C56.7737233,21.4992815 54.2327333,21.2341535 51.7102328,21.6053327 C51.5543925,22.2310349 51.3932694,22.8328755 51.25856,23.4373675 C50.8676384,25.1907475 50.4828801,26.9450114 50.1042849,28.7001589 C49.9748581,29.3046509 49.9061827,29.9250505 49.7820387,30.5321937 C49.7371356,30.7575525 49.557523,30.9590498 49.5337507,31.1817574 C49.5099785,31.4044649 49.6763843,31.6218699 49.652612,31.831321 C49.5495989,32.6956384 49.4016826,33.5546533 49.2828214,34.4163194 C49.2405596,34.7212166 49.2379182,35.0314164 49.2115046,35.3919905 L48.6700254,35.2965445 L48.6700254,36.020344 L49.0873606,36.2271439 C49.0875072,36.3021756 49.0786387,36.3769513 49.060947,36.4498514 C49.0239679,36.5506001 48.9024653,36.6858154 48.9341616,36.7335384 C49.1982978,37.1763022 49.0081197,37.5289225 48.6964391,37.9743376 L48.6964391,36.6486974 L48.6119155,36.6486974 C48.5511642,37.0119228 48.5194678,37.3831021 48.4243788,37.7357224 C48.3292898,38.0883427 48.1787321,38.4754296 48.4455097,38.8625165 L48.9209548,38.5205014 L48.9209548,40.7343205 C48.9421396,40.9450039 48.9421396,41.157293 48.9209548,41.3679765 C48.8543122,41.5622143 48.7656873,41.7481359 48.6568186,41.9220941 C48.4613579,41.8902787 48.4613579,41.8902787 48.4507924,42.3224374 L48.6515359,41.8955812 C48.983052,42.4780764 49.1226502,43.1508499 49.0503815,43.8177595 C49.0239679,44.2472669 48.8311485,44.692682 49.3145177,45.06121 C49.4809235,45.1884714 49.4307376,45.5914661 49.4888476,45.9387838 L49.0345334,46.1561888 C49.0530229,46.6095577 49.3330072,46.5247167 49.5469575,46.4743424 C49.7210714,46.7594538 49.9237475,47.0259654 50.1518294,47.2697265 C50.3566742,47.4460271 50.6517844,47.4685654 50.8808452,47.3254034 C51.9063269,46.7851661 52.8064563,46.0334462 53.522207,45.1195382 C54.661997,43.7099291 55.730456,42.2436875 56.7235375,40.7263666 C57.1884171,39.9999158 57.5872628,39.2257419 58.0970456,38.5311065 C58.6464488,37.788748 58.9739777,36.9138255 59.5445118,36.2032823 C59.8244962,35.850662 59.7875171,35.4078982 60.0595774,35.0711856 C60.3020153,34.7409273 60.5175436,34.3915951 60.7040697,34.0265812 C61.0870671,33.3425508 61.4964782,32.6611718 61.816083,31.9532799 C61.9838554,31.5278439 62.1215473,31.091068 62.2281354,30.6461987 C62.4922716,29.7368096 62.78018,28.8300717 63.0522403,27.9206825 C63.1578947,27.5680622 63.2793974,27.2340009 63.7152221,27.0722728 C63.8312307,27.3303793 63.9663172,27.5794111 64.1193504,27.8172826 C64.3078777,28.037467 64.5117777,28.2439046 64.729505,28.4350309 C64.4283897,28.965287 65.2577773,28.549036 65.1574056,28.8937024 C65.1574056,29.2224612 64.5446097,29.1853433 64.8113872,29.6015943 L64.8113872,29.5856866 C64.8113872,29.8508146 64.9144003,30.1398042 64.824594,30.3598604 C64.662889,30.7400193 64.7429356,31.1803637 65.0279789,31.4787008 C65.2614296,31.7438539 65.3658873,32.0991786 65.3132459,32.4490694 C65.3264975,32.6840922 65.3556194,32.9179418 65.4004109,33.1490074 L65.0913716,32.984628 C65.1626883,33.2762688 64.9593035,33.5148841 65.0913716,33.7561506 C65.2023087,33.5281405 65.3053219,33.3186893 65.4056936,33.1092382 C65.4504047,33.1127061 65.4946522,33.1207006 65.5377617,33.1330997 C65.5377617,33.6898686 65.5377617,34.2466374 65.5377617,34.9227139 L65.1785365,34.3394323 L65.0649579,34.3526887 C65.0688056,34.6867442 65.0899651,35.0203727 65.1283506,35.3522213 C65.1847066,35.6312048 65.2660384,35.9045121 65.3713559,36.1688157 C65.4157888,36.2694484 65.4805473,36.3597285 65.5615339,36.4339437 C65.6064371,36.4816668 65.7279397,36.5134821 65.722657,36.5399949 C65.6302094,37.1975125 65.9550968,37.8205633 65.8732146,38.4780809 C65.8494424,38.687532 65.817746,38.8360037 65.5905889,38.9261473 C65.4532381,38.9844754 65.3607905,39.1568086 65.2445705,39.2814188 L65.4268245,39.8567467 L65.7490706,39.8567467 C65.8362356,40.3631412 65.035903,40.7449256 65.5641753,41.2937406 C65.5728447,41.1741796 65.6061222,41.0577224 65.6619057,40.9517254 C65.7120916,40.890746 65.8600078,40.9119562 66,40.890746 C65.9762277,41.4819815 65.7015261,41.7789249 65.167971,41.8372531 C65.247668,42.0965417 65.3025052,42.3628796 65.3317355,42.6326372 C65.3021623,42.9420069 65.4207925,43.2470768 65.6513402,43.4545341 C65.8388769,43.624216 65.8151047,44.0298619 65.9154764,44.4434617 L65.5139894,44.2552208 C65.1468401,44.5203488 65.1864606,44.9047844 65.2683428,45.3979226 L65.7596361,44.9127383 C65.7992565,44.976369 65.8732146,45.042651 65.8600078,45.0797689 C65.7966151,45.2865688 65.7094502,45.4880661 65.6328507,45.6922147 C65.1257093,45.5410917 65.1045784,45.562302 65.1653297,46.0209735 C65.1838192,46.15884 65.1468401,46.3020092 65.1653297,46.442527 C65.1917433,46.6758397 65.1653297,46.9992959 65.2973978,47.1212548 C65.6011544,47.3863829 65.5615339,47.7098391 65.6143612,48.0863209 L64.9857171,48.0863209 C64.9540207,48.5953667 64.919683,49.146833 64.8853453,49.6770891 L64.547251,49.799048 C64.6185678,50.2603708 64.6846018,50.6766218 64.75856,51.1538522 L65.130992,51.0875702 C64.9223244,52.3893489 64.8061045,53.6831737 64.2778321,54.9372293 L63.6306985,55.0114651 L63.6306985,55.1731932 L64.2091567,55.2500804 C64.2302876,55.3084085 64.2725494,55.3640854 64.2593426,55.3932495 C63.955586,56.0109978 63.9635101,56.7188897 63.5435336,57.3286842 C63.2265701,57.7900069 63.2793974,58.4925962 63.0152612,59.0095959 C62.751125,59.5265956 62.6666014,60.1920669 62.1647427,60.6003641 C62.1277636,60.6295282 62.0775778,60.6825538 62.0828605,60.7117179 C62.1937977,61.241974 61.948151,61.6105019 61.6285463,62.0055427 C61.3588692,62.3703876 61.1427182,62.7721703 60.9866954,63.1986189 C60.7040697,63.8799979 60.210135,64.4076027 59.8271375,65.0067921 C59.5207396,65.4840225 59.2301898,65.9771607 58.8762473,66.4305296 C57.8904005,67.7472655 56.7773858,68.9630356 55.5534142,70.0601324 C53.8374029,71.5704671 51.8705496,72.7666765 49.7424183,73.5942891 C48.2327932,74.2060069 46.6413127,74.5901827 45.0196635,74.7343397 C43.7835062,74.8191806 42.5499902,74.935837 41.321757,74.9994677 C40.9339737,75.0045977 40.5465852,74.972638 40.1648405,74.9040216 C39.7536913,74.8322034 39.4344809,74.5043181 39.372432,74.0900785 C39.3090393,73.6473147 39.4463901,73.4086995 39.9297593,73.1886432 C40.1938955,73.0719869 40.4580317,72.9844946 40.7908433,72.865187 C41.0549795,73.4272584 41.5251419,73.4219559 42.0719037,73.34772 C43.6329485,73.130315 45.1147525,72.6106641 46.5833496,72.0857106 C47.6187635,71.7171826 48.5802191,71.1471573 49.5812952,70.680532 C49.7989104,70.6020824 50.0212231,70.5374404 50.2469184,70.4869885 C50.331442,70.4604757 50.4740755,70.4047988 50.4740755,70.3650296 C50.4582274,69.9938504 50.7910389,69.9487786 51.0023479,69.8347736 C52.3441597,69.0181792 53.4825866,67.9550158 54.6553512,66.9183652 C55.4239875,66.24494 55.9364117,65.3620636 56.7050479,64.7045461 C56.8316683,64.5631739 56.9358973,64.4031136 57.0140873,64.2299669 C57.0774799,64.126567 57.1118176,63.9860491 57.1989826,63.9224184 C58.1445901,63.2251317 58.5196635,62.122199 59.092839,61.1836458 C59.6808283,60.2075259 60.2194679,59.2023012 60.706711,58.1717913 C61.6168993,56.313591 62.3253365,54.3625171 62.8198004,52.3522309 C63.0548816,51.3924675 63.3480728,50.4406578 63.495989,49.4676379 C63.6914498,48.1976746 63.7865388,46.9091524 63.8895519,45.6259327 C63.9925651,44.342713 64.0929368,43.0117703 64.1299159,41.7046891 C64.1536881,40.7687871 64.0850127,39.8275826 64.0401096,38.8890293 C63.9582274,37.239933 63.8737038,35.5881853 63.7759734,33.9390889 C63.7284289,33.1993817 63.6359812,32.4623258 63.554099,31.6218699 C62.9888476,32.0248645 63.0918607,32.6161 62.8277245,33.0243972 C62.5635883,33.4326944 62.3285071,33.8940172 62.0696537,34.3500374 L61.8609861,34.0849093 C61.7949521,34.5303244 61.7632557,34.9306678 61.6681667,35.3124521 C61.5466641,35.8161954 61.0315985,35.6385596 60.6486011,35.8294518 L60.7991587,36.1741183 L59.9433575,37.0994151 C60.1546664,37.2584919 59.7478967,37.6959532 60.1678732,37.85503 L59.3358443,38.2315118 C59.4494228,38.403845 59.5814909,38.5178501 59.5999804,38.6345064 C59.5815415,38.7783305 59.5290058,38.915618 59.4467815,39.0348497 C58.815496,38.8333524 58.88153,39.3980752 58.7494619,39.6923673 C58.6570143,39.9044697 58.7151242,40.1828541 58.6173939,40.3923053 C58.5196635,40.6017564 58.31892,40.6972025 58.1789278,40.8589306 C57.8830953,41.2088996 57.5978282,41.5694738 57.2623753,41.9830735 L57.7563099,41.9486069 L56.9031501,43.1496369 C56.9665428,42.9136729 57.0272941,42.6750577 57.1038936,42.3860681 L56.800137,42.1209401 C56.7499511,42.5133296 56.7103307,42.8208781 56.6707102,43.1390317 L56.9348464,43.1390317 C56.7835367,43.2076302 56.6370442,43.2864663 56.4963804,43.3749957 C56.2929955,43.5155135 56.1160243,43.6639852 56.216396,43.974185 C56.2521271,44.1270967 56.2295109,44.287896 56.1530033,44.4249027 C55.9687511,44.7923752 55.7369477,45.1338083 55.4636079,45.4403431 C55.136079,45.7558454 54.9855214,46.1827016 54.697613,46.5008552 C54.0930104,47.183167 53.4252755,47.8063591 52.7033849,48.362054 C51.9109763,48.947987 50.9151829,48.9426844 49.9986304,48.6908128 C49.543827,48.5246075 49.1447574,48.2333688 48.8469967,47.8503569 C48.1493495,47.0339816 47.6646732,46.0564337 47.4365095,45.0055331 C47.1287708,43.7580533 46.9307884,42.4858527 46.8448445,41.2035971 C46.776169,39.5120802 46.8897476,37.8099582 46.9848366,36.1157901 C47.0561534,34.8564319 47.1882215,33.599725 47.3546273,32.3483207 C47.5606535,30.8132294 47.8010174,29.2781381 48.0783604,27.7536519 C48.3794756,26.1045555 48.7466249,24.4713668 49.0767951,22.827573 C49.1454706,22.4961629 49.1771669,22.156799 49.2299941,21.7829685 L39.5282724,22.1461939 L39,21.589425 C39.0924477,20.8285076 39.1056545,20.8391127 39.8188221,20.8550204 C40.2358655,20.8416419 40.6519697,20.8071313 41.0655449,20.7516205 C41.942477,20.6853384 42.8167678,20.6217077 43.7069067,20.5686821 C44.5970456,20.5156565 45.4026609,20.4785386 46.2505381,20.4281643 C47.3625514,20.3618822 48.477206,20.2902977 49.6446879,20.2160618 C49.9088241,19.2987188 50.1518294,18.3601656 50.4370965,17.4454739 C50.9944238,15.6585109 51.5596752,13.8741992 52.156623,12.1004927 C52.6196403,10.6746734 53.2046821,9.29173514 53.9052045,7.96714661 C54.0407124,7.71208033 54.2027382,7.47212827 54.3885737,7.25130092 C54.6764821,6.91458831 54.9960869,6.90663447 55.1994717,7.28576756 C55.3817257,7.62248017 55.7752886,7.86374668 55.6485032,8.37809507 C55.5507728,8.77578712 55.3843671,8.85002297 55.0436314,8.75987944 L55.4160634,8.37809507 C55.1228722,8.17924904 54.974956,8.2932541 54.887791,8.481495 C54.8719429,8.53717189 55.0013696,8.6564795 55.0541968,8.74927432 Z M48.4006065,41.2672278 C48.6647427,40.5938026 48.572295,40.1006645 48.2923107,39.8965159 C48.324007,40.2729977 48.3557034,40.6865974 48.4006065,41.2672278 Z M52.3626492,17.3579816 C52.7535707,17.0928536 52.6267854,16.870146 52.4788691,16.6421359 L52.309822,16.6421359 L52.3626492,17.3579816 Z M54.5787517,10.0298427 L54.7689298,10.0669606 C54.8032675,9.84160182 54.8376052,9.61889427 54.8745842,9.39353544 L54.7319507,9.36172008 C54.6764821,9.58442763 54.6262962,9.80713517 54.573469,10.0298427 L54.5787517,10.0298427 Z M52.8829975,15.3058906 L52.7747016,15.2820291 C52.7468476,15.3735191 52.7239226,15.4664485 52.7060262,15.5604135 C52.7451145,15.5790265 52.7857758,15.59411 52.8275289,15.6054853 L52.8829975,15.3058906 Z M48.8469967,43.9132056 C48.7730385,43.8734364 48.7043631,43.8071544 48.6726668,43.8230621 C48.6181948,43.8552246 48.5842101,43.9134162 48.5828605,43.9768363 C48.5828605,44.0166055 48.6805909,44.0881901 48.7122872,44.077585 C48.7439836,44.0669799 48.7862454,43.9874414 48.841714,43.9132056 L48.8469967,43.9132056 Z" id="Shape"></path>
                <path d="M164.395903,38.1991149 C164.077291,38.5838843 163.761312,38.9843586 163.437433,39.3560406 C163.289976,39.5287942 163.155685,39.8219519 162.876571,39.4816796 C162.876571,39.4816796 162.613255,39.5889962 162.613255,39.6701381 C162.539526,40.0156453 162.165618,40.1936339 162.170884,40.609813 C162.17615,41.0259922 161.723247,41.0076698 161.404635,41.0364621 C161.441499,41.1882759 161.544192,41.3662645 161.494162,41.4317014 C161.336847,41.6234248 161.160403,41.7988183 160.967531,41.9551972 C160.901702,42.0127818 160.785843,42.046809 160.764777,42.1148635 C160.671127,42.5788747 160.308868,42.9430913 159.843172,43.041451 C159.808941,43.2194396 159.843172,43.4288379 159.740479,43.5335371 C159.332339,43.9889784 158.889969,44.4156275 158.460764,44.8422766 C158.410734,44.8920087 158.321206,44.9260359 158.305407,44.981003 C158.071056,45.915443 157.204747,46.412764 156.812407,47.2686796 L156.485895,46.9781394 C156.667583,47.5880121 156.317373,47.9544591 155.975062,48.3261411 C155.587988,48.7475553 155.100854,49.1113848 154.84807,49.6060884 C154.624518,50.0207202 154.334595,50.3964374 153.989661,50.7185169 C153.657883,51.0457018 153.318205,51.3650343 152.983794,51.6869842 C152.354469,52.2942393 151.527658,52.3622938 150.758775,52.2811519 C149.945129,52.1973926 149.673914,51.3990615 149.392166,50.7473092 C148.973494,49.778842 148.970861,48.7423203 149.023524,47.7057986 C149.167254,45.5241636 149.528002,43.3620427 150.100486,41.2510954 C150.740311,38.7380432 151.555942,36.2724853 152.541424,33.8724221 C153.331371,31.9407226 154.139751,30.014258 154.995527,28.1139683 C155.66435,26.6272402 156.370036,25.1535995 157.152084,23.7218385 C158.052624,22.0675918 159.053224,20.4656946 160.011694,18.8428577 C160.488296,18.0366741 160.949099,17.2226382 161.454665,16.434777 C161.960231,15.6469158 162.486863,14.9716062 162.981897,14.2230072 C163.64282,13.2283652 164.251079,12.2023134 164.927801,11.2207588 C165.717749,10.0585981 166.578791,8.92784721 167.421402,7.79186133 C167.631877,7.53497352 167.856015,7.28945274 168.092857,7.05634973 C168.619489,6.49620922 169.122422,5.91774636 169.672753,5.38378064 C170.286278,4.78961291 170.710217,4.93357426 171.015663,5.48586233 C171.189452,5.79734233 171.51333,6.025063 171.876706,6.39674502 C171.9715,6.98567779 171.460667,7.52226099 171.086759,8.07193158 C170.178319,9.39899343 169.182985,10.6658533 168.25348,11.9798277 C167.726848,12.7258092 167.271312,13.5215229 166.768379,14.2832092 C165.89417,15.6076536 164.996263,16.9163931 164.13522,18.2460725 C163.440066,19.3140039 162.755445,20.3897878 162.102422,21.483894 C161.117621,23.1355232 160.135453,24.78977 159.205948,26.4571041 C158.484462,27.7658436 157.826173,29.0981404 157.178416,30.4382896 C156.47624,31.9023329 155.794252,33.3777186 155.132452,34.8644466 C154.884935,35.4245871 154.734845,36.0266073 154.539991,36.6103051 C154.526961,36.6557263 154.511132,36.7003076 154.492594,36.7437966 C153.589421,38.5079774 153.249743,40.4606167 152.586187,42.3059394 C152.207012,43.352931 152.035857,44.4889169 151.79624,45.5856406 C151.593487,46.4912884 151.382834,47.3943186 151.243276,48.3104363 C151.139447,48.984021 151.109429,49.6668143 151.153749,50.3468349 L151.706712,50.3939495 C152.307073,49.7945469 152.904799,49.216084 153.478828,48.6166813 C153.971229,48.0931855 154.458363,47.5696897 154.911266,47.0461939 C155.324672,46.5514904 155.66435,45.9992023 156.083022,45.5097337 C157.10732,44.3083109 158.152684,43.1225929 159.195415,41.9368749 C160.385603,40.5862557 161.512594,39.1728171 162.797576,37.9216621 C163.587523,37.1599757 164.132587,36.2464755 164.833007,35.4350571 C165.425468,34.7466601 165.986331,34.0294708 166.539294,33.3070466 C166.726449,33.0298159 166.896173,32.7413423 167.047494,32.4432786 C167.310809,32.0061596 167.310809,32.0061596 167.916436,31.7574991 C168.25348,32.5427428 168.443068,33.4614779 169.580592,33.4143633 C170.022963,34.3304809 169.933435,35.2701559 169.886038,36.2255357 C169.830742,37.3536692 169.872873,38.4844201 169.886038,39.615171 C169.934836,41.5836251 170.27737,43.5339701 170.902438,45.4024171 C171.602858,47.6403616 172.793045,49.6087058 174.799512,50.9750299 C175.35788,51.3823124 175.937072,51.7606074 176.534763,52.1083983 C177.179887,52.456523 177.819745,52.2811519 178.396406,51.8754427 C178.588627,51.7393338 178.759782,51.5744326 179.012566,51.3519469 C179.117892,51.8754427 179.615559,52.1110158 179.473368,52.6842437 C179.397007,52.9826363 179.760383,52.9852538 180,52.9957237 C179.792803,53.1838274 179.573811,53.358677 179.344344,53.5192195 C178.478034,54.0636551 177.543263,54.0872124 176.568995,53.8778141 C175.594726,53.6684158 174.83111,53.14492 174.020097,52.6031018 C172.440202,51.5561102 171.165753,50.1871687 169.891305,48.8234621 C168.758417,47.5524426 167.898271,46.0650561 167.363473,44.4522722 C166.544336,42.2694097 166.210175,39.9361745 166.383938,37.6127996 C166.382815,37.216705 166.35201,36.8212438 166.291777,36.4296991 C165.554493,36.8668181 165.159519,37.6075646 164.501229,38.0342137 C164.414335,37.9609243 164.287943,37.8038755 164.237913,37.8248154 C164.06786,37.9231616 163.907419,38.0370803 163.758679,38.1650877 C164.027261,38.5027424 164.211582,38.369251 164.395903,38.1991149 Z M162.112955,20.5075743 C162.518461,20.0783078 162.518461,20.0783078 162.263045,19.7223306 C162.044492,19.921259 161.849639,20.1254224 162.112955,20.5075743 Z M155.893434,48.0225136 C155.782842,47.9492242 155.709113,47.8602299 155.648551,47.8706998 C155.569518,47.8990897 155.508864,47.9632724 155.485295,48.0434534 C155.485295,48.0879505 155.587988,48.2031196 155.635385,48.1978847 C155.682782,48.1926497 155.76441,48.1088904 155.893434,48.0225136 Z" id="Shape"></path>
                <path d="M78.2922169,39.991215 C78.0177187,40.353722 77.7734153,40.7344847 77.4687222,41.0813439 C76.6315027,42.0671543 75.7750682,43.0373168 74.9241237,44.0153033 C74.7118623,44.3113121 74.4691064,44.5865057 74.1994484,44.8368119 C73.5159479,45.3584047 72.8104875,45.8617417 72.0775772,46.3155274 C71.344667,46.7693131 70.4662727,46.5763238 69.651013,46.633699 C69.4232272,46.6176811 69.2153242,46.5045356 69.0855466,46.3259593 C68.7310618,45.8427957 68.4466873,45.3164717 68.2400921,44.7611809 C67.8393247,43.3737442 67.9848088,41.9602277 68.3498914,40.5884387 C68.6375366,39.4503874 69.0043398,38.331722 69.4478843,37.2398131 C70.1945194,35.4716136 70.9960542,33.7242778 72.1626717,32.1412438 C72.8782904,31.1902581 73.6557183,30.2826591 74.4904166,29.4237454 C75.4319455,28.4379351 76.4805287,27.6268583 77.8228249,27.1991522 C78.3287576,27.0183495 78.8751915,26.9644576 79.4094247,27.0426744 C79.7141177,27.0922257 80.0544955,26.9540036 80.3536985,27.0165948 C80.8136056,27.13402 81.2647793,27.2803892 81.7042298,27.4547327 C81.752484,27.4681952 81.7966956,27.4923256 81.8332439,27.5251477 L83.1178956,28.9960393 C83.2415735,29.1720107 83.3902995,29.330866 83.5598377,29.4680808 C83.9962899,29.744525 84.0951093,29.9140426 83.9139404,30.3678283 C83.6394422,31.0589388 83.3127893,31.7344014 83.0657409,32.4333357 C82.8363843,33.0390938 82.6645941,33.6631516 82.5524293,34.2980299 C82.206474,36.3951566 82.0923938,38.5209162 82.2120515,40.640598 C82.280676,41.6603119 82.3026359,42.7008895 82.6018389,43.7153874 C82.901042,44.7298854 83.0437811,45.8017585 83.2743596,46.8449441 C83.3597199,47.2424242 83.4743766,47.6337134 83.6174824,48.0159198 C83.7602214,48.3914666 83.521408,48.6261834 83.2990644,48.8322125 C83.2150121,48.9262086 83.0874814,48.974643 82.9583915,48.9615955 C82.8293015,48.948548 82.7153504,48.8757064 82.6539936,48.7670134 C82.6402687,48.7487577 82.5688992,48.7670134 82.5304694,48.7670134 C82.2998909,48.8296046 82.0720574,48.9052355 81.8387339,48.9626107 C81.352872,49.0799691 81.0811188,48.9182753 80.740741,48.5166489 C80.1341,47.8098907 79.9172464,47.0275015 79.7443125,46.1694814 C79.3984447,44.4299695 78.9949323,42.7034974 78.6216148,40.9718094 C78.5557352,40.6718936 78.5200504,40.3641538 78.4706407,40.06163 L78.2922169,39.991215 Z M70.6639114,43.9396723 C71.1409614,43.8332915 71.5635586,43.5711609 71.8579786,43.1990106 C72.4508948,42.374894 73.3759538,41.8376534 73.9029904,40.9457298 C74.268073,40.3276424 74.8280494,39.8138735 75.2754815,39.2296896 C76.0358415,38.2256235 76.8126715,37.2267733 77.4961721,36.1757639 C77.9518391,35.4716136 78.5337753,34.8117988 78.6929843,33.9537787 C78.7880532,33.26829 78.9311093,32.5895843 79.1212015,31.9221748 C79.4341295,30.972876 79.8541118,30.0548727 80.2191944,29.1212216 C80.2472428,28.9759156 80.2555456,28.8277901 80.2438992,28.6804757 C79.2200209,28.8917208 78.5145605,29.4837286 77.8612547,30.0966001 C76.6342477,31.2493201 75.7448734,32.6497967 74.8417743,34.0320176 C73.923529,35.4055198 73.0983616,36.8332316 72.3712903,38.3064704 C71.586453,39.8555949 71.0268459,41.4988706 70.7078311,43.1911867 C70.6831263,43.4128636 70.6831263,43.6423644 70.6639114,43.9396723 Z" id="Shape"></path>
                <path d="M173.415801,24.8736551 C173.302592,25.7835844 173.20976,25.8819551 172.344843,26 C171.919177,25.5671688 171.928233,25.0802336 172.152387,24.524439 C172.501071,23.6636951 172.78183,22.7660621 173.159948,21.9176145 C173.782933,20.4679852 174.691076,19.1844186 175.820361,18.1573932 C175.883759,18.10083 175.953948,18.0590224 176.033195,18 C176.449804,18.3492161 176.343387,19.1189671 177,19.2763603 C176.942015,19.3999096 176.865496,19.5121107 176.773582,19.6083615 C175.904136,20.2846603 175.449036,21.3027974 174.907896,22.252075 C174.595439,22.8004919 174.292039,23.3538272 173.98411,23.9071626 C173.959204,23.7719029 173.934298,23.6341838 173.911656,23.4989241 L173.769013,23.4989241 C173.746371,23.6194282 173.723729,23.7448509 173.703352,23.8579773 L173.997695,23.8973255 L173.386366,24.9031663 C173.393601,24.8827505 173.397434,24.8610995 173.397687,24.8392253 C173.397687,24.8195512 173.379574,24.7851214 173.370517,24.7851214 C173.037682,24.8047956 173.00372,25.0310483 173.053532,25.3286197 L173.415801,24.8736551 Z" id="Shape"></path>
                <path d="M68.8573071,16 C69.4235522,16.3343035 69.137879,17.2199584 70,17.175052 C69.270513,17.7912682 68.5996911,18.3476091 67.9416224,18.9214137 C67.7994571,19.0590421 67.6728921,19.2112748 67.5641256,19.3754678 C67.1330651,19.9492723 66.8677971,20.6403326 66.2607415,21.0869023 C66.2058189,21.1508709 66.1704564,21.2286943 66.1587153,21.3114345 C66.1459621,21.3513514 66.1816712,21.4037422 66.1587153,21.4461538 C66.0868591,21.7648332 65.8010716,21.9938206 65.4674882,22 C65.1275987,21.8881662 64.9330862,21.5391874 65.0211237,21.1991684 C65.1888743,20.6045088 65.4090561,20.0252057 65.6791924,19.4677755 C66.2952144,18.2300395 67.1993927,17.1508399 68.3191191,16.3168399 C68.4951142,16.1970894 68.681312,16.1047817 68.8573071,16 Z" id="Shape"></path>
                <path d="M31.0013299,43.6300471 C31.1763545,43.1469322 31.474926,42.9467225 32,43.0120082 L31.4680623,44 C31.2724465,43.8302569 31.1248767,43.7127425 31.0013299,43.5995804 C30.9995567,43.6096115 30.9995567,43.6200161 31.0013299,43.6300471 Z" id="Shape"></path>
                <path d="M65.0059214,29.025974 C65.5388507,29.1201299 65.598065,29.2694805 65.3848933,30 C65.2427789,29.6331169 65.1243502,29.3181818 65,29 L65.0059214,29.025974 Z" id="Shape"></path>
                <path d="M66,47 C66.5045539,47.1837607 66.7214236,47.4273504 66.199166,48 L66,47 Z" id="Shape"></path>
                <path d="M180.37113,54 C180.09113,53.7034221 179.66613,53.4106464 180.44113,53 C180.41113,53.3802281 180.38613,53.6958175 180.36113,54 L180.37113,54 Z" id="Shape"></path>
                <path d="M54.035,12.5 L54.33,12 C54.595,12.3246753 54.445,12.4577922 54,12.4772727 L54.035,12.5 Z" id="Shape"></path>
                <path d="M66,49.4200031 C66.07,49.2800031 66.135,49.1350031 66.205,49.0000031 C66.2468814,48.9997936 66.2881444,49.0101093 66.325,49.0300031 C66.325,49.1850031 66.325,49.3400031 66.325,49.4900031 L66,49.4200031 Z" id="Shape"></path>
                <polygon id="Shape" points="65 31.4430894 65.25 31 65.47 31.0934959 65.14 31.5"></polygon>
            </g>
        </g>
    </g>
</svg>